#define wifi5_2_width 11
#define wifi5_2_height 9
static unsigned char wifi5_2_bits[] = {
   0x00, 0x00, 0x00, 0x00, 0x00, 0x00, 0xf8, 0x00, 0x04, 0x01, 0x72, 0x02,
   0x88, 0x00, 0x00, 0x00, 0x20, 0x00 };
