#define wifi5_1_width 11
#define wifi5_1_height 9
static unsigned char wifi5_1_bits[] = {
   0x00, 0x00, 0x00, 0x00, 0x00, 0x00, 0x00, 0x00, 0x00, 0x00, 0x70, 0x00,
   0x88, 0x00, 0x00, 0x00, 0x20, 0x00 };
