#define wifi5_width 11
#define wifi5_height 9
static unsigned char wifi5_bits[] = {
   0x70, 0x00, 0x8c, 0x01, 0x02, 0x02, 0xf9, 0x04, 0x04, 0x01, 0x72, 0x02,
   0x88, 0x00, 0x00, 0x00, 0x20, 0x00 };
